<?xml version="1.0" encoding="UTF-8"?>
<svg id="Layer_2" data-name="Layer 2" xmlns="http://www.w3.org/2000/svg" viewBox="0 0 1862.61 409.05">
  <defs>
    <style>
      .cls-1 {
        fill: #58adb2;
      }

      .cls-1, .cls-2, .cls-3 {
        stroke-width: 0px;
      }

      .cls-2 {
        fill: #35c7b3;
      }

      .cls-3 {
        fill: #ec4443;
      }
    </style>
  </defs>
  <g id="Layer_1-2" data-name="Layer 1">
    <g>
      <path class="cls-3" d="M106.84,204.73c-26.6,0-45.79,15.05-45.79,49.51s18.36,51.8,46.22,50.31c27.23-1.46,37.47-16.43,42.92-37.63l57.12-1.07c-4.49,49.64-36.81,88.21-98.74,88.21C43.17,354.06,0,320.79,0,255.83s42.3-100.22,107.27-100.22,93.35,32.39,100.29,85.31l-57.56,1.44c-4.79-21.79-16.57-37.63-43.17-37.63Z"/>
      <path class="cls-3" d="M297.55,348.52h-59.74V105.7h59.74v242.82Z"/>
      <path class="cls-3" d="M454.77,302.57h-.87c-9.16,32.09-31.83,49.91-66.72,49.91s-62.79-17.82-62.79-54.66c0-34.07,22.24-57.44,76.75-57.44h53.64v-7.92c0-20.2-9.59-31.29-32.27-31.29-19.62,0-32.27,7.92-36.19,29.71l-55.82.6c4.84-42.57,30.52-75.07,94.63-75.07s88.96,27.73,88.96,75.66v116.46h-59.31v-45.95ZM454.77,276.42v-5.55h-44.48c-17.44,0-27.91,7.13-27.91,17.43,0,11.49,7.85,20.6,30.52,20.6,25.29,0,41.86-13.47,41.86-32.48Z"/>
      <path class="cls-1" d="M1651.6,302.57h-.87c-9.16,32.09-31.83,49.91-66.72,49.91s-62.79-17.82-62.79-54.66c0-34.07,22.24-57.44,76.75-57.44h53.64v-7.92c0-20.2-9.59-31.29-32.27-31.29-19.62,0-32.27,7.92-36.19,29.71l-55.82.6c4.84-42.57,30.52-75.07,94.63-75.07s88.96,27.73,88.96,75.66v116.46h-59.31v-45.95ZM1651.6,276.42v-5.55h-44.48c-17.44,0-27.91,7.13-27.91,17.43,0,11.49,7.85,20.6,30.52,20.6,25.29,0,41.86-13.47,41.86-32.48Z"/>
      <path class="cls-1" d="M1290.36,254.64c0-62.59,41.86-99.03,107.27-99.03s106.84,36.44,106.84,99.03-40.55,99.42-106.84,99.42-107.27-37.63-107.27-99.42ZM1350.1,254.24c0,30.5,16.57,50.31,47.09,50.31s47.97-19.81,47.97-50.31-17.44-49.51-47.53-49.51-47.53,19.41-47.53,49.51Z"/>
      <path class="cls-1" d="M1745.74,205.92h-23.98v-45.16h23.98v-47.14h59.31v47.14h54.51v45.16h-54.51v73.28c0,15.05,6.11,22.18,23.98,22.18,9.16,0,19.62-2.77,27.04-4.36l6.54,49.91c-15.7,4.36-26.16,7.13-48.84,7.13-47.97,0-68.03-28.92-68.03-64.57v-83.58Z"/>
      <g>
        <path class="cls-3" d="M825.16,99.44c-1.19-3.03-2.51-6.64-3.44-9.86-1-3.45-.42-7.14,1.53-10.16,2.57-3.99,4.84-8.47-1.36-13.45-2.12-1.71-8-8-.02-13.88.79-.59.93-1.72.28-2.46-2.32-2.64-6.17-8.59.56-13.44.93-.67,1-1.99.1-2.7-2.29-1.81-5.14-5.76-2.12-13.4.62-1.56-1.32-2.87-2.51-1.69-14.64,14.5-45.52,51.95-35.16,101.9.4,1.91,2.28,3.13,4.2,2.79,6.44-1.16,20.82-4.45,34.15-12.41,3.85-2.3,5.42-7.07,3.79-11.24Z"/>
        <g>
          <path class="cls-3" d="M854.92,197.55c-13.4,20.57-21.39,75.28-27.17,110.91l-7.15,40.64h-85.04l-21.37-116.44c-2.21-12.34-4.49-25.34-6.75-38.57-3.13-18.14-6.18-36.67-8.96-54.32h-5.66c-2.77,17.65-5.83,36.17-8.96,54.32-2.26,13.23-4.54,26.23-6.75,38.57l-21.36,116.44h-85.04l-7.14-40.64c-5.81-35.63-13.77-90.35-27.17-110.91-35.28-54.27-81.51-123.35,7.94-197.05,2.23-1.83,5.17,1.81,3.6,4.25-4.3,6.72-7.17,16.78.21,29.1.54.92.31,2.07-.61,2.61-2.68,1.62-7,5.41-1.1,11,.78.73.73,2-.09,2.7-2.44,2.07-5.78,6.32,1.5,10.27,1.11.59,1.36,2.09.52,2.99-2.92,3.08-3.46,8.63,2.3,9.71,1.2.23,1.27,2.04.45,2.91-1.72,1.79-3.06,5.15-1.34,8.51.71,1.36,2.82,2.75,4.32,3.1,1.69.4,4.35,2.94,4.49,5.34.28,5.17-18.69,22.99,50.02,37.14,4.49.92,8.3,6.35,5.41,9.92-4.18,5.17-6.04,14.06,2.99,20.26,1.48,1.03,1.41,3.24-.12,4.21-5.78,3.62-11.14,10.34-2.28,19.44,1.79,1.83,2.14,4.63.68,6.77-1.95,2.84-4.47,9.19-6.23,18.03-4,19.84-5.73,26.25-3.22,49.1,1.32,11.99,4.28,22.99,7.64,35.44h3.03c5.69-32.27,11.35-62.8,17.46-93.76l1.2-5.43,23.64-106.64h73.68l23.64,106.64,1.2,5.43c6.11,30.95,11.78,61.49,17.46,93.76h3.03c3.34-12.46,6.32-23.46,7.64-35.44,2.52-22.85.75-29.26-3.22-49.1-1.79-8.84-4.3-15.18-6.23-18.03-1.46-2.14-1.1-4.94.68-6.77,8.86-9.1,3.48-15.82-2.3-19.44-1.53-.96-1.6-3.17-.12-4.21,9.03-6.2,7.19-15.09,3.01-20.26-2.89-3.57.92-9,5.41-9.92,68.7-14.15,49.73-31.96,50.02-37.14.14-2.4,2.8-4.94,4.49-5.34,1.48-.35,3.62-1.74,4.3-3.1,1.72-3.36.38-6.72-1.34-8.51-.82-.87-.75-2.68.45-2.91,5.76-1.08,5.22-6.63,2.33-9.71-.85-.89-.61-2.4.49-2.99,7.31-3.95,3.97-8.2,1.53-10.27-.82-.71-.87-1.97-.09-2.7,5.9-5.59,1.57-9.38-1.1-11-.92-.54-1.15-1.69-.61-2.61,7.38-12.32,4.51-22.38.21-29.1-1.57-2.44,1.36-6.09,3.6-4.25,89.43,73.71,43.22,142.78,7.94,197.05Z"/>
          <path class="cls-3" d="M566.18,99.44c1.19-3.03,2.51-6.64,3.44-9.86,1-3.45.42-7.14-1.53-10.16-2.57-3.99-4.84-8.47,1.36-13.45,2.12-1.71,8-8,.02-13.88-.79-.59-.93-1.72-.28-2.46,2.32-2.64,6.17-8.59-.56-13.44-.93-.67-1-1.99-.1-2.7,2.29-1.81,5.14-5.76,2.12-13.4-.62-1.56,1.32-2.87,2.51-1.69,14.64,14.5,45.52,51.95,35.16,101.9-.4,1.91-2.28,3.13-4.2,2.79-6.44-1.16-20.82-4.45-34.15-12.41-3.85-2.3-5.42-7.07-3.79-11.24Z"/>
        </g>
      </g>
      <rect class="cls-2" x="960.4" y="87.36" width=".02" height=".12"/>
      <rect class="cls-2" x="997.51" y="87.36" width=".07" height=".12"/>
      <rect class="cls-1" x="1034.67" y="87.36" width=".07" height=".12"/>
      <path class="cls-1" d="M1238.87,87.36v.12h1.01v-.12h-1.01ZM1201.69,87.36v.12h1.01v-.12h-1.01Z"/>
      <rect class="cls-2" x="960.4" y="87.36" width=".02" height=".12"/>
      <rect class="cls-2" x="997.51" y="87.36" width=".07" height=".12"/>
      <rect class="cls-1" x="1034.67" y="87.36" width=".07" height=".12"/>
      <rect class="cls-1" x="1201.76" y="87.36" width=".94" height=".12"/>
      <rect class="cls-1" x="1213.32" y="87.36" width=".07" height=".12"/>
      <rect class="cls-1" x="1238.94" y="87.36" width=".94" height=".12"/>
      <rect class="cls-2" x="960.4" y="87.36" width=".02" height=".12"/>
      <rect class="cls-2" x="997.51" y="87.36" width=".07" height=".12"/>
      <rect class="cls-1" x="1034.67" y="87.36" width=".07" height=".12"/>
      <rect class="cls-1" x="1201.76" y="87.36" width=".94" height=".12"/>
      <rect class="cls-1" x="1213.32" y="87.36" width=".07" height=".12"/>
      <rect class="cls-1" x="1238.94" y="87.36" width=".94" height=".12"/>
      <rect class="cls-1" x="1213.32" y="87.36" width=".07" height=".12"/>
      <g>
        <path class="cls-1" d="M1238.49,61.93v25.55h-.02v261.52h-59.75v-109.46c0-32.27,0-69.34.42-101.18h-.42c-9.59,34.46-20.5,73.71-34.46,118.18l-7.69,23.27-13.96,42.31-8.88,26.89h-66.26l-8.88-26.89-13.96-42.31-7.69-23.27c-13.96-44.47-24.87-83.72-34.46-118.18h-.42c.42,31.85.42,68.91.42,101.18v109.46h-59.75V87.48h.02v-.12h-.02v.12h-.05v-25.55h25.52v25.55h.07v-.12h11.56v.12h.07v-.12h-.07v-25.43h25.55v25.55h.07v-.12h11.54v.12h.07v-.12h-.07v-25.43h25.55v25.55h.07v-.05l34.86,103.7c5.99,17.13,15.35,51.07,23.13,83.65,7.76-32.58,17.11-66.52,23.1-83.65l34.83-103.65h-.07v-25.55h25.55v25.55h1.01v-.12h10.62v.12h.07v-.12h-.07v-25.43h25.55v25.55h1.01v-.12h10.72v-25.43h25.55Z"/>
        <path class="cls-1" d="M1148.97,279.81l-13.99,42.31h31.99v-42.31h-18ZM1012.25,279.81h-18v42.31h31.99l-13.98-42.31ZM1250.22,281.22v45.34c5.41,4.09,8.93,10.58,8.93,17.86,0,12.32-10.01,22.33-22.3,22.33h-312.48c-12.29,0-22.3-10.01-22.3-22.33,0-7.29,3.53-13.77,8.93-17.86v-45.34c-29.24,6.16-51.24,32.18-51.24,63.2,0,35.63,28.98,64.63,64.61,64.63h312.48c35.63,0,64.61-29,64.61-64.63,0-31.02-22-57.04-51.24-63.2ZM1148.97,279.81l-13.99,42.31h31.99v-42.31h-18ZM1012.25,279.81h-18v42.31h31.99l-13.98-42.31Z"/>
      </g>
    </g>
  </g>
</svg>