<?xml version="1.0" encoding="UTF-8"?>
<svg id="Layer_2" data-name="Layer 2" xmlns="http://www.w3.org/2000/svg" viewBox="0 0 241.13 228.51">
  <defs>
    <style>
      .cls-1 {
        fill: #58adb2;
      }

      .cls-1, .cls-2 {
        stroke-width: 0px;
      }

      .cls-2 {
        fill: #ec4443;
      }
    </style>
  </defs>
  <g id="Layer_1-2" data-name="Layer 1">
    <g>
      <g>
        <path class="cls-2" d="M191.17,54.22c-.65-1.65-1.37-3.62-1.87-5.38-.54-1.88-.23-3.89.83-5.54,1.4-2.18,2.64-4.62-.74-7.33-1.16-.93-4.36-4.36-.01-7.57.43-.32.51-.94.15-1.34-1.26-1.44-3.37-4.68.31-7.33.51-.36.54-1.09.05-1.47-1.25-.98-2.8-3.14-1.16-7.3.34-.85-.72-1.56-1.37-.92-7.98,7.91-24.82,28.33-19.17,55.56.22,1.04,1.24,1.71,2.29,1.52,3.51-.63,11.35-2.43,18.62-6.77,2.1-1.25,2.96-3.85,2.07-6.13Z"/>
        <g>
          <path class="cls-2" d="M207.4,107.72c-7.3,11.21-11.66,41.05-14.82,60.48l-3.9,22.16h-46.37l-11.65-63.49c-1.2-6.73-2.45-13.82-3.68-21.03-1.7-9.89-3.37-19.99-4.88-29.62h-3.09c-1.51,9.62-3.18,19.72-4.88,29.62-1.23,7.22-2.47,14.3-3.68,21.03l-11.65,63.49h-46.37l-3.9-22.16c-3.17-19.43-7.51-49.26-14.82-60.48C14.5,78.13-10.71,40.46,38.07.27c1.22-1,2.82.99,1.96,2.32-2.35,3.67-3.91,9.15.12,15.87.29.5.17,1.13-.33,1.42-1.46.88-3.82,2.95-.6,6,.42.4.4,1.09-.05,1.47-1.33,1.13-3.15,3.45.82,5.6.6.32.74,1.14.28,1.63-1.59,1.68-1.88,4.7,1.26,5.29.65.13.69,1.11.24,1.59-.94.97-1.67,2.81-.73,4.64.38.74,1.54,1.5,2.36,1.69.92.22,2.37,1.6,2.45,2.91.15,2.82-10.19,12.53,27.27,20.25,2.45.5,4.52,3.46,2.95,5.41-2.28,2.82-3.29,7.66,1.63,11.05.81.56.77,1.77-.06,2.29-3.15,1.97-6.07,5.64-1.24,10.6.97,1,1.17,2.52.37,3.69-1.06,1.55-2.44,5.01-3.4,9.83-2.18,10.82-3.13,14.32-1.76,26.77.72,6.54,2.33,12.53,4.17,19.33h1.65c3.1-17.6,6.19-34.24,9.52-51.12l.65-2.96,12.89-58.14h40.18l12.89,58.14.65,2.96c3.33,16.88,6.42,33.53,9.52,51.12h1.65c1.82-6.79,3.45-12.79,4.17-19.33,1.37-12.46.41-15.96-1.76-26.77-.97-4.82-2.35-8.28-3.4-9.83-.79-1.17-.6-2.69.37-3.69,4.83-4.96,1.9-8.63-1.26-10.6-.83-.53-.87-1.73-.06-2.29,4.92-3.38,3.92-8.23,1.64-11.05-1.58-1.95.5-4.91,2.95-5.41,37.46-7.72,27.12-17.43,27.27-20.25.08-1.31,1.52-2.69,2.45-2.91.81-.19,1.97-.95,2.35-1.69.94-1.83.2-3.67-.73-4.64-.45-.47-.41-1.46.24-1.59,3.14-.59,2.85-3.61,1.27-5.29-.46-.49-.33-1.31.27-1.63,3.99-2.15,2.17-4.47.83-5.6-.45-.38-.47-1.08-.05-1.47,3.22-3.05.86-5.11-.6-6-.5-.29-.63-.92-.33-1.42,4.02-6.72,2.46-12.2.12-15.87-.86-1.33.74-3.32,1.96-2.32,48.76,40.19,23.57,77.86,4.33,107.45Z"/>
          <path class="cls-2" d="M49.95,54.22c.65-1.65,1.37-3.62,1.87-5.38.54-1.88.23-3.89-.83-5.54-1.4-2.18-2.64-4.62.74-7.33,1.16-.93,4.36-4.36.01-7.57-.43-.32-.51-.94-.15-1.34,1.26-1.44,3.37-4.68-.31-7.33-.51-.36-.54-1.09-.05-1.47,1.25-.98,2.8-3.14,1.16-7.3-.34-.85.72-1.56,1.37-.92,7.98,7.91,24.82,28.33,19.17,55.56-.22,1.04-1.24,1.71-2.29,1.52-3.51-.63-11.35-2.43-18.62-6.77-2.1-1.25-2.96-3.85-2.07-6.13Z"/>
        </g>
      </g>
      <path class="cls-1" d="M212.18,158.81l-4.58,23.89c4.03.91,8.52,4.23,9.31,9.71,1.01,6.92-3.21,13-11.65,13.03H35.87c-8.44-.03-12.66-6.11-11.65-13.03.79-5.48,5.28-8.8,9.31-9.71l-4.58-23.89c-15.94,3.35-28.95,18.06-28.95,34.98,0,19.43,10.86,34.85,36.24,34.72h168.66c25.38.13,36.23-15.29,36.23-34.72,0-16.92-13-31.63-28.94-34.98Z"/>
    </g>
  </g>
</svg>